<svg width="29" height="29" viewBox="0 0 29 29" fill="none" xmlns="http://www.w3.org/2000/svg">
<g id="call_24dp_5F6368_FILL1_wght400_GRAD0_opsz24 1">
<path id="Vector" d="M23.775 25C21.3444 25 18.9431 24.4701 16.5708 23.4104C14.1986 22.3507 12.0403 20.8486 10.0958 18.9042C8.15139 16.9597 6.64931 14.8014 5.58958 12.4292C4.52986 10.0569 4 7.65556 4 5.225C4 4.875 4.11667 4.58333 4.35 4.35C4.58333 4.11667 4.875 4 5.225 4H9.95C10.2222 4 10.4653 4.09236 10.6792 4.27708C10.8931 4.46181 11.0194 4.68056 11.0583 4.93333L11.8167 9.01667C11.8556 9.32778 11.8458 9.59028 11.7875 9.80417C11.7292 10.0181 11.6222 10.2028 11.4667 10.3583L8.6375 13.2167C9.02639 13.9361 9.48819 14.6313 10.0229 15.3021C10.5576 15.9729 11.1458 16.6194 11.7875 17.2417C12.3903 17.8444 13.0222 18.4035 13.6833 18.9187C14.3444 19.434 15.0444 19.9056 15.7833 20.3333L18.525 17.5917C18.7 17.4167 18.9285 17.2854 19.2104 17.1979C19.4924 17.1104 19.7694 17.0861 20.0417 17.125L24.0667 17.9417C24.3389 18.0194 24.5625 18.1604 24.7375 18.3646C24.9125 18.5688 25 18.7972 25 19.05V23.775C25 24.125 24.8833 24.4167 24.65 24.65C24.4167 24.8833 24.125 25 23.775 25Z" fill="#4C566A"/>
</g>
</svg>
