<svg width="18" height="16" viewBox="0 0 18 16" fill="none" xmlns="http://www.w3.org/2000/svg">
<path id="&#226;&#128;&#156;" d="M17.584 0.521083L17.1415 3.58908C16.2369 3.51042 15.519 3.66775 14.988 4.06108C14.457 4.43475 14.0932 4.97558 13.8965 5.68359C13.7195 6.37192 13.69 7.15858 13.808 8.04358H17.584V15.6251H10.2975V7.74858C10.2975 5.17225 10.9072 3.22525 12.1265 1.90758C13.3459 0.570249 15.165 0.108082 17.584 0.521083ZM7.70154 0.521083L7.25904 3.58908C6.35437 3.51042 5.63654 3.66775 5.10554 4.06108C4.57454 4.43475 4.21071 4.97558 4.01404 5.68359C3.83704 6.37192 3.80754 7.15858 3.92554 8.04358H7.70154V15.6251H0.415039V7.74858C0.415039 5.17225 1.02471 3.22525 2.24404 1.90758C3.46337 0.570249 5.28254 0.108082 7.70154 0.521083Z" fill="#5E81AC"/>
</svg>
